# xmcd
#
# Track frame offsets:
#	150
#	17076
#	38473
#	60739
#	86600
#	105740
#	129527
#	157821
#	177793
#	203069
#	226129
#	243572
#	258192
#	279136
#	296857
#
# Disc length: 4168 seconds
#
# Revision: 0
# Processed by: cddbd v1.5.2PL0 Copyright (c) Steve Scherf et al.
# Submitted via: EasyCDDAExtractor 16.0.6.1
#
DISCID=bf10460f
DTITLE=Various Artist - 2012 Steppin' Music Vol. 22
DYEAR=2012
DGENRE=R&B
TTITLE0=Kim Provost - Lush Life
TTITLE1=Cardell - Get Closer
TTITLE2=Chris Youngblood - In Love With You
TTITLE3=Pop Machine - Only You
TTITLE4=Estelle - Thank You
TTITLE5=Snoop Dogg - Riders On The Storm
TTITLE6=Kruder and Dormeister - Original Bedroom Rocker
TTITLE7=Will Downing - One Step Closer
TTITLE8=Marva King ft. Christoper Williams - Steppin'
TTITLE9=Dial Tone - Knock Me Off My Feet (Remix)
TTITLE10=Beyonce - Love On Top (Remix) 
TTITLE11=Nina Vidal - Drivin'
TTITLE12=Beverly Knight - Salvadore
TTITLE13=Trey Songz - Find A Place
TTITLE14=Jeffrey Osborne - Crazy 'bout Cha
EXTD=
EXTT0=
EXTT1=
EXTT2=
EXTT3=
EXTT4=
EXTT5=
EXTT6=
EXTT7=
EXTT8=
EXTT9=
EXTT10=
EXTT11=
EXTT12=
EXTT13=
EXTT14=
PLAYORDER=
